<?xml version="1.0" encoding="utf-8"?>
<!-- Generator: Adobe Illustrator 22.0.0, SVG Export Plug-In . SVG Version: 6.00 Build 0)  -->
<svg version="1.1" xmlns="http://www.w3.org/2000/svg" xmlns:xlink="http://www.w3.org/1999/xlink" x="0px" y="0px"
	 viewBox="0 0 256 256" style="enable-background:new 0 0 256 256;" xml:space="preserve">
<style type="text/css">
	.st0{display:none;}
	.st1{display:inline;}
	.st2{fill:none;stroke:#6B1D1D;stroke-width:0.5;stroke-miterlimit:10;}
	.st3{fill:#3A312A;}
	.st4{fill:#87796F;}
	.st5{fill:#D5DE58;}
	.st6{fill:#695B51;}
	.st7{fill:#FCE8CB;}
	.st8{fill:#F16C7A;}
	.st9{fill:#8AC6DD;}
	.st10{fill:#DECAAD;}
	.st11{fill:#D6DF58;}
	.st12{fill-rule:evenodd;clip-rule:evenodd;fill:#FCE8CB;}
	.st13{fill:#F5978A;}
	.st14{fill:#D7E057;}
	.st15{fill-rule:evenodd;clip-rule:evenodd;fill:#87796F;}
	.st16{fill:#6CA8BF;}
	.st17{fill:#B9C239;}
	.st18{fill:#D34E5C;}
	.st19{fill:#FAE6CA;}
	.st20{fill:#F8E4C8;}
	.st21{fill:#8AC5DC;}
	.st22{fill:#EF6D7A;}
	.st23{fill:#EB6E7A;}
	.st24{fill:#89C4DB;}
	.st25{fill-rule:evenodd;clip-rule:evenodd;fill:#F16C7A;}
	.st26{fill:#F7E3C7;}
	.st27{fill:#F6E2C6;}
	.st28{fill:#ED6E7A;}
	.st29{fill:#8AC3DA;}
	.st30{fill:#D5DC57;}
	.st31{fill-rule:evenodd;clip-rule:evenodd;fill:#D7E057;}
	.st32{fill-rule:evenodd;clip-rule:evenodd;fill:#F8E4C8;}
	.st33{fill:#D4DB56;}
	.st34{fill:#F59689;}
	.st35{fill:#DDC9AC;}
	.st36{fill:#D24E5C;}
	.st37{fill:#6A5C52;}
	.st38{fill:#6CA6BE;}
	.st39{fill:#B8C136;}
	.st40{fill-rule:evenodd;clip-rule:evenodd;fill:#FAE6CA;}
</style>
<g id="Layer_2" class="st0">
	<g class="st1">
		<g>
			<line class="st2" x1="0" y1="4.829" x2="256" y2="4.829"/>
			<line class="st2" x1="0" y1="16.56" x2="256" y2="16.56"/>
			<line class="st2" x1="0" y1="28.29" x2="256" y2="28.29"/>
			<line class="st2" x1="0" y1="40.021" x2="256" y2="40.021"/>
			<line class="st2" x1="0" y1="51.751" x2="256" y2="51.751"/>
			<line class="st2" x1="0" y1="63.482" x2="256" y2="63.482"/>
			<line class="st2" x1="0" y1="75.213" x2="256" y2="75.213"/>
			<line class="st2" x1="0" y1="86.943" x2="256" y2="86.943"/>
			<line class="st2" x1="0" y1="98.674" x2="256" y2="98.674"/>
			<line class="st2" x1="0" y1="110.404" x2="256" y2="110.404"/>
			<line class="st2" x1="0" y1="122.135" x2="256" y2="122.135"/>
			<line class="st2" x1="0" y1="133.865" x2="256" y2="133.865"/>
			<line class="st2" x1="0" y1="145.596" x2="256" y2="145.596"/>
			<line class="st2" x1="0" y1="157.326" x2="256" y2="157.326"/>
			<line class="st2" x1="0" y1="169.057" x2="256" y2="169.057"/>
			<line class="st2" x1="0" y1="180.788" x2="256" y2="180.788"/>
			<line class="st2" x1="0" y1="192.518" x2="256" y2="192.518"/>
			<line class="st2" x1="0" y1="204.249" x2="256" y2="204.249"/>
			<line class="st2" x1="0" y1="215.979" x2="256" y2="215.979"/>
			<line class="st2" x1="0" y1="227.71" x2="256" y2="227.71"/>
			<line class="st2" x1="0" y1="239.44" x2="256" y2="239.44"/>
			<line class="st2" x1="0" y1="251.171" x2="256" y2="251.171"/>
		</g>
		<g>
			<line class="st2" x1="251.171" y1="0" x2="251.171" y2="256"/>
			<line class="st2" x1="239.44" y1="0" x2="239.44" y2="256"/>
			<line class="st2" x1="227.71" y1="0" x2="227.71" y2="256"/>
			<line class="st2" x1="215.979" y1="0" x2="215.979" y2="256"/>
			<line class="st2" x1="204.249" y1="0" x2="204.249" y2="256"/>
			<line class="st2" x1="192.518" y1="0" x2="192.518" y2="256"/>
			<line class="st2" x1="180.788" y1="0" x2="180.788" y2="256"/>
			<line class="st2" x1="169.057" y1="0" x2="169.057" y2="256"/>
			<line class="st2" x1="157.326" y1="0" x2="157.326" y2="256"/>
			<line class="st2" x1="145.596" y1="0" x2="145.596" y2="256"/>
			<line class="st2" x1="133.865" y1="0" x2="133.865" y2="256"/>
			<line class="st2" x1="122.135" y1="0" x2="122.135" y2="256"/>
			<line class="st2" x1="110.404" y1="0" x2="110.404" y2="256"/>
			<line class="st2" x1="98.674" y1="0" x2="98.674" y2="256"/>
			<line class="st2" x1="86.943" y1="0" x2="86.943" y2="256"/>
			<line class="st2" x1="75.213" y1="0" x2="75.213" y2="256"/>
			<line class="st2" x1="63.482" y1="0" x2="63.482" y2="256"/>
			<line class="st2" x1="51.751" y1="0" x2="51.751" y2="256"/>
			<line class="st2" x1="40.021" y1="0" x2="40.021" y2="256"/>
			<line class="st2" x1="28.29" y1="0" x2="28.29" y2="256"/>
			<line class="st2" x1="16.56" y1="0" x2="16.56" y2="256"/>
			<line class="st2" x1="4.829" y1="0" x2="4.829" y2="256"/>
		</g>
	</g>
</g>
<g id="Layer_1">
	<g>
		<path class="st4" d="M16.5,143.305v58.774c0,9.447,7.658,17.105,17.105,17.105h188.789c9.447,0,17.105-7.658,17.105-17.105V71.79
			c0-9.447-7.658-17.105-17.105-17.105H33.605c-9.447,0-17.105,7.658-17.105,17.105v57.441V143.305z"/>
		<path class="st3" d="M222.395,220.685H33.605c-10.259,0-18.605-8.347-18.605-18.605v-58.774c0-0.828,0.671-1.5,1.5-1.5
			s1.5,0.672,1.5,1.5v58.774c0,8.604,7,15.605,15.605,15.605h188.789c8.605,0,15.605-7.001,15.605-15.605V71.79
			c0-8.605-7.001-15.605-15.605-15.605H33.605C25,56.185,18,63.186,18,71.79v57.441c0,0.828-0.671,1.5-1.5,1.5s-1.5-0.672-1.5-1.5
			V71.79c0-10.259,8.346-18.605,18.605-18.605h188.789c10.259,0,18.605,8.346,18.605,18.605v130.289
			C241,212.338,232.654,220.685,222.395,220.685z"/>
		<path class="st4" d="M247.75,219.18c0,11.19-9.07,20.26-20.25,20.26h-199c-5.59,0-10.65-2.27-14.32-5.93
			c-3.66-3.67-5.93-8.73-5.93-14.33H247.75z"/>
		<path class="st3" d="M227.5,240.94h-199c-5.799,0-11.261-2.262-15.379-6.368c-4.109-4.121-6.371-9.586-6.371-15.393
			c0-0.398,0.158-0.779,0.439-1.061c0.281-0.281,0.663-0.439,1.061-0.439h239.5c0.829,0,1.5,0.672,1.5,1.5
			C249.25,231.179,239.493,240.94,227.5,240.94z M9.809,220.68c0.35,4.442,2.248,8.576,5.434,11.77
			c3.549,3.54,8.258,5.49,13.258,5.49h199c9.834,0,17.924-7.615,18.69-17.261H9.809z"/>
		<path class="st14" d="M137.705,206.685h77.264c6.583,0,11.92-5.337,11.92-11.92V79.105c0-6.583-5.337-11.92-11.92-11.92H41.031
			c-6.583,0-11.92,5.337-11.92,11.92v115.66c0,6.583,5.337,11.92,11.92,11.92h83.931H137.705z"/>
		<path class="st3" d="M214.969,208.185h-77.264c-0.829,0-1.5-0.672-1.5-1.5c0-0.828,0.671-1.5,1.5-1.5h77.264
			c5.746,0,10.42-4.675,10.42-10.42V79.105c0-5.746-4.674-10.42-10.42-10.42H41.031c-5.746,0-10.42,4.674-10.42,10.42v115.66
			c0,5.745,4.674,10.42,10.42,10.42h83.931c0.829,0,1.5,0.672,1.5,1.5c0,0.828-0.671,1.5-1.5,1.5H41.031
			c-7.4,0-13.42-6.021-13.42-13.42V79.105c0-7.4,6.02-13.42,13.42-13.42h173.938c7.4,0,13.42,6.02,13.42,13.42v115.66
			C228.389,202.164,222.369,208.185,214.969,208.185z"/>
		<path class="st4" d="M145.5,219.18v6.446c0,2.173-1.761,3.934-3.934,3.934h-25.133c-2.173,0-3.934-1.761-3.934-3.934v-6.446H145.5
			z"/>
		<path class="st3" d="M141.566,231.06h-25.133c-2.996,0-5.434-2.438-5.434-5.434v-6.446c0-0.828,0.671-1.5,1.5-1.5h33
			c0.829,0,1.5,0.672,1.5,1.5v6.446C147,228.622,144.562,231.06,141.566,231.06z M114,220.68v4.946c0,1.342,1.092,2.434,2.434,2.434
			h25.133c1.342,0,2.434-1.092,2.434-2.434v-4.946H114z"/>
		<path class="st9" d="M38.841,47.253c0-16.951,15.518-30.693,34.659-30.693s34.659,13.742,34.659,30.693
			c0,7.766-3.264,14.854-8.635,20.26l5.459,13.757c0.525,1.322-0.731,2.656-2.082,2.211l-20.178-6.642
			c-2.938,0.717-6.028,1.107-9.223,1.107c-8.829,0-16.883-2.928-23.003-7.743c-0.05-0.039-0.101-0.076-0.151-0.116
			c-0.338-0.269-0.667-0.546-0.993-0.826c-1.021-0.874-1.989-1.796-2.882-2.774c0.007-0.002,0.015-0.004,0.022-0.006
			C41.709,61.219,38.841,54.535,38.841,47.253z"/>
		<path class="st3" d="M103.438,85.069c-0.335,0-0.674-0.054-1.007-0.163l-19.774-6.51c-2.996,0.697-6.074,1.05-9.157,1.05
			c-8.821,0-17.319-2.864-23.93-8.063l-0.149-0.114c-0.361-0.288-0.705-0.577-1.045-0.87c-1.099-0.939-2.113-1.916-3.011-2.899
			c-0.058-0.064-0.11-0.132-0.156-0.203c-5.075-5.674-7.867-12.782-7.867-20.043c0-17.751,16.221-32.193,36.159-32.193
			s36.159,14.442,36.159,32.193c0,7.546-2.97,14.826-8.384,20.606l5.102,12.858c0.46,1.158,0.215,2.442-0.64,3.35
			C105.123,84.719,104.295,85.069,103.438,85.069z M82.723,75.339c0.159,0,0.317,0.025,0.469,0.075l20.178,6.643
			c0.034,0.011,0.105,0.035,0.184-0.047c0.077-0.082,0.049-0.152,0.036-0.186L98.13,68.067c-0.22-0.555-0.091-1.187,0.33-1.61
			c5.287-5.322,8.199-12.142,8.199-19.203c0-16.097-14.875-29.193-33.159-29.193S40.341,31.156,40.341,47.253
			c0,6.692,2.511,12.993,7.262,18.22c0.053,0.059,0.102,0.121,0.144,0.186c0.774,0.831,1.641,1.659,2.582,2.463
			c0.314,0.271,0.629,0.536,0.952,0.793c0.004,0.004,0.13,0.099,0.135,0.103c6.093,4.793,13.933,7.429,22.084,7.429
			c2.988,0,5.972-0.358,8.867-1.064C82.484,75.353,82.604,75.339,82.723,75.339z"/>
		<path class="st3" d="M91.341,41.06h-35c-0.829,0-1.5-0.671-1.5-1.5c0-0.829,0.671-1.5,1.5-1.5h35c0.829,0,1.5,0.671,1.5,1.5
			C92.841,40.389,92.169,41.06,91.341,41.06z"/>
		<path class="st3" d="M91.341,58.06h-35c-0.829,0-1.5-0.671-1.5-1.5c0-0.829,0.671-1.5,1.5-1.5h35c0.829,0,1.5,0.671,1.5,1.5
			C92.841,57.389,92.169,58.06,91.341,58.06z"/>
		<path class="st7" d="M217.159,47.253c0-16.951-15.518-30.693-34.659-30.693s-34.659,13.742-34.659,30.693
			c0,7.766,3.264,14.854,8.635,20.26l-5.459,13.757c-0.525,1.322,0.732,2.656,2.083,2.211l20.178-6.642
			c2.938,0.717,6.028,1.107,9.223,1.107c8.829,0,16.883-2.928,23.003-7.743c0.05-0.039,0.101-0.076,0.151-0.116
			c0.338-0.269,0.667-0.546,0.993-0.826c1.021-0.874,1.989-1.796,2.882-2.774c-0.007-0.002-0.015-0.004-0.022-0.006
			C214.29,61.219,217.159,54.535,217.159,47.253z"/>
		<path class="st3" d="M152.561,85.069c-0.857,0-1.684-0.35-2.299-1.002c-0.855-0.908-1.1-2.191-0.64-3.35l5.102-12.858
			c-5.414-5.779-8.384-13.06-8.384-20.606c0-17.751,16.221-32.193,36.159-32.193s36.159,14.442,36.159,32.193
			c0,7.263-2.792,14.372-7.87,20.046c-0.044,0.07-0.096,0.137-0.153,0.2c-0.898,0.983-1.913,1.96-3.015,2.902
			c-0.337,0.289-0.681,0.579-1.033,0.86l-0.114,0.087c-6.655,5.234-15.154,8.098-23.975,8.098c-3.083,0-6.161-0.353-9.157-1.05
			l-19.774,6.51C153.235,85.016,152.896,85.069,152.561,85.069z M182.5,18.06c-18.284,0-33.159,13.096-33.159,29.193
			c0,7.062,2.912,13.881,8.199,19.203c0.421,0.423,0.55,1.056,0.33,1.61l-5.459,13.757c-0.013,0.034-0.042,0.104,0.036,0.186
			c0.078,0.081,0.149,0.058,0.184,0.047l20.178-6.643c0.267-0.088,0.552-0.1,0.825-0.032c2.896,0.706,5.879,1.064,8.867,1.064
			c8.151,0,15.991-2.636,22.076-7.422c0.007-0.006,0.083-0.063,0.09-0.069c0.376-0.298,0.691-0.563,1.002-0.831
			c0.945-0.808,1.813-1.637,2.587-2.469c0.042-0.065,0.089-0.126,0.142-0.183c4.751-5.227,7.262-11.527,7.262-18.22
			C215.659,31.156,200.784,18.06,182.5,18.06z"/>
		<path class="st3" d="M199.659,41.06h-35c-0.829,0-1.5-0.671-1.5-1.5c0-0.829,0.671-1.5,1.5-1.5h35c0.829,0,1.5,0.671,1.5,1.5
			C201.159,40.389,200.488,41.06,199.659,41.06z"/>
		<path class="st3" d="M199.659,58.06h-35c-0.829,0-1.5-0.671-1.5-1.5c0-0.829,0.671-1.5,1.5-1.5h35c0.829,0,1.5,0.671,1.5,1.5
			C201.159,57.389,200.488,58.06,199.659,58.06z"/>
		<path class="st8" d="M170.44,133.673v32.03c0,4.5-3.645,8.145-8.145,8.145H90.687c-4.5,0-8.145-3.645-8.145-8.145v-32.03
			l43.949,22.353L170.44,133.673z"/>
		<path class="st3" d="M162.295,175.348H90.687c-5.318,0-9.644-4.326-9.644-9.645v-32.03c0-0.521,0.271-1.006,0.716-1.278
			c0.445-0.273,0.999-0.296,1.464-0.059l43.269,22.008l43.269-22.008c0.465-0.237,1.02-0.215,1.464,0.059
			c0.445,0.273,0.716,0.757,0.716,1.278v32.03C171.94,171.021,167.614,175.348,162.295,175.348z M84.043,136.119v29.584
			c0,3.664,2.981,6.645,6.644,6.645h71.608c3.664,0,6.645-2.98,6.645-6.645v-29.584l-41.769,21.244c-0.428,0.217-0.933,0.217-1.36,0
			L84.043,136.119z"/>
		<polygon class="st8" points="126.491,88.759 60.366,122.392 126.491,156.025 192.616,122.392 		"/>
		<path class="st3" d="M126.491,157.524c-0.233,0-0.466-0.055-0.68-0.163l-66.125-33.632c-0.503-0.256-0.82-0.772-0.82-1.337
			c0-0.564,0.317-1.081,0.82-1.337l66.125-33.633c0.428-0.218,0.933-0.218,1.36,0l66.125,33.633c0.503,0.256,0.82,0.772,0.82,1.337
			c0,0.564-0.317,1.081-0.82,1.337l-66.125,33.632C126.958,157.47,126.725,157.524,126.491,157.524z M63.675,122.392l62.816,31.95
			l62.816-31.95l-62.816-31.95L63.675,122.392z"/>
		<path class="st9" d="M192.616,122.392v40.965c-1.693-2.177-3.984-3.516-6.516-3.516c-2.516,0-4.806,1.339-6.5,3.516v-34.353
			L192.616,122.392z"/>
		<path class="st3" d="M179.6,164.857c-0.162,0-0.327-0.026-0.486-0.081c-0.606-0.208-1.013-0.778-1.013-1.419v-34.353
			c0-0.564,0.317-1.082,0.821-1.337l13.016-6.613c0.464-0.236,1.018-0.214,1.464,0.059c0.444,0.272,0.715,0.757,0.715,1.278v40.965
			c0,0.641-0.407,1.211-1.013,1.419c-0.607,0.208-1.278,0.007-1.671-0.498c-1.473-1.894-3.366-2.937-5.331-2.937
			c-1.955,0-3.843,1.043-5.316,2.937C180.495,164.65,180.054,164.857,179.6,164.857z M186.101,158.342
			c1.776,0,3.486,0.541,5.016,1.562v-35.066l-10.016,5.088v29.977C182.627,158.882,184.332,158.342,186.101,158.342z"/>
		<ellipse class="st9" cx="186.105" cy="172.858" rx="9.528" ry="13.014"/>
		<path class="st3" d="M186.105,187.372c-6.082,0-11.029-6.512-11.029-14.515c0-8.003,4.947-14.515,11.029-14.515
			c6.081,0,11.028,6.512,11.028,14.515C197.134,180.86,192.186,187.372,186.105,187.372z M186.105,161.343
			c-4.427,0-8.029,5.165-8.029,11.515c0,6.35,3.602,11.515,8.029,11.515c4.427,0,8.028-5.165,8.028-11.515
			C194.134,166.508,190.532,161.343,186.105,161.343z"/>
		<path class="st17" d="M214.97,68.68h-5.49c-0.59,0.58-1.2,1.16-1.86,1.72c-0.3,0.26-0.61,0.52-0.92,0.77
			c2.26,1.9,3.69,4.75,3.69,7.93v115.67c0,5.74-4.68,10.41-10.42,10.41h15c5.74,0,10.42-4.67,10.42-10.41V79.1
			C225.39,73.36,220.71,68.68,214.97,68.68z"/>
	</g>
</g>
</svg>
