<?xml version="1.0" encoding="iso-8859-1"?>
<!-- Generator: Adobe Illustrator 19.0.0, SVG Export Plug-In . SVG Version: 6.00 Build 0)  -->
<svg xmlns="http://www.w3.org/2000/svg" xmlns:xlink="http://www.w3.org/1999/xlink" version="1.1" id="Layer_1" x="0px" y="0px" viewBox="0 0 511.999 511.999" style="enable-background:new 0 0 511.999 511.999;" xml:space="preserve">
<path style="fill:#E4EAF8;" d="M503.705,256c0,0-106.16,132.7-247.706,132.7S8.293,256,8.293,256s106.16-132.7,247.706-132.7  S503.705,256,503.705,256z"/>
<circle style="fill:#D5DCED;" cx="255.999" cy="256" r="121.111"/>
<circle style="fill:#00C3FF;" cx="255.999" cy="256" r="97.313"/>
<circle style="fill:#464655;" cx="255.999" cy="256" r="44.233"/>
<circle style="fill:#FFFFFF;" cx="284.751" cy="227.248" r="17.693"/>
<path style="fill:#00AAF0;" d="M185.226,256c0-49.232,36.593-89.817,84.043-96.304c-4.35-0.595-8.756-1.01-13.27-1.01  c-53.745,0-97.313,43.569-97.313,97.313s43.569,97.313,97.313,97.313c4.514,0,8.92-0.415,13.27-1.01  C221.819,345.816,185.226,305.231,185.226,256z"/>
<path d="M255.999,150.393c-58.232,0-105.607,47.375-105.607,105.607s47.375,105.607,105.607,105.607S361.606,314.232,361.606,256  S314.231,150.393,255.999,150.393z M255.999,345.019c-49.086,0-89.019-39.934-89.019-89.019s39.934-89.019,89.019-89.019  s89.019,39.934,89.019,89.019S305.085,345.019,255.999,345.019z"/>
<path d="M293.21,230.677c-4.196,1.837-6.108,6.728-4.271,10.923c1.989,4.544,2.998,9.389,2.998,14.399  c0,19.818-16.123,35.94-35.94,35.94S220.06,275.817,220.06,256s16.123-35.94,35.94-35.94c5.006,0,9.847,1.007,14.388,2.993  c4.2,1.837,9.087-0.079,10.922-4.275c1.836-4.197-0.079-9.087-4.275-10.922c-6.65-2.908-13.728-4.384-21.036-4.384  c-28.963,0-52.527,23.564-52.527,52.527s23.564,52.527,52.527,52.527s52.527-23.564,52.527-52.527  c0-7.315-1.477-14.398-4.391-21.053C302.297,230.751,297.406,228.839,293.21,230.677z"/>
<path d="M169.371,102.376c1.143,3.499,4.391,5.72,7.882,5.72c0.853,0,1.722-0.133,2.578-0.412c4.354-1.422,6.73-6.105,5.308-10.459  l-13.546-41.469c-1.422-4.354-6.104-6.73-10.459-5.308c-4.354,1.422-6.73,6.105-5.308,10.459L169.371,102.376z"/>
<path d="M101.281,131.263c1.611,2.32,4.193,3.564,6.82,3.564c1.632,0,3.281-0.481,4.723-1.482c3.762-2.613,4.694-7.781,2.082-11.543  L98.841,98.664c-2.612-3.762-7.78-4.695-11.543-2.081c-3.762,2.612-4.694,7.781-2.082,11.543L101.281,131.263z"/>
<path d="M255.999,96.207c4.58,0,8.294-3.713,8.294-8.294v-53.08c0-4.58-3.713-8.294-8.294-8.294c-4.58,0-8.294,3.713-8.294,8.294  v53.08C247.705,92.494,251.419,96.207,255.999,96.207z"/>
<path d="M39.84,176.154c1.633,1.742,3.839,2.622,6.052,2.622c2.033,0,4.071-0.743,5.671-2.244c3.342-3.133,3.511-8.381,0.378-11.723  l-11.058-11.796c-3.133-3.341-8.382-3.511-11.723-0.378c-3.342,3.133-3.511,8.381-0.378,11.724L39.84,176.154z"/>
<path d="M332.169,107.684c0.856,0.28,1.724,0.412,2.578,0.412c3.491,0,6.739-2.222,7.882-5.72l13.546-41.469  c1.422-4.355-0.954-9.037-5.308-10.459s-9.037,0.954-10.459,5.308l-13.546,41.469C325.438,101.579,327.815,106.262,332.169,107.684z  "/>
<path d="M399.173,133.344c1.442,1.002,3.091,1.482,4.723,1.482c2.626,0,5.208-1.244,6.82-3.564l16.067-23.137  c2.612-3.762,1.681-8.931-2.082-11.543c-3.763-2.613-8.931-1.681-11.543,2.081L397.091,121.8  C394.479,125.565,395.411,130.732,399.173,133.344z"/>
<path d="M466.106,178.776c2.212,0,4.42-0.88,6.052-2.622l11.058-11.796c3.133-3.342,2.964-8.591-0.378-11.724  c-3.341-3.133-8.59-2.964-11.723,0.378l-11.058,11.796c-3.133,3.342-2.964,8.591,0.378,11.723  C462.034,178.033,464.072,178.776,466.106,178.776z"/>
<path d="M510.181,250.818c-1.11-1.388-27.71-34.381-72.273-67.803c-41.367-31.025-106.506-68.009-181.909-68.009  S115.457,151.99,74.09,183.015c-44.563,33.423-71.164,66.416-72.273,67.803c-2.423,3.029-2.423,7.334,0,10.363  c1.109,1.388,27.71,34.381,72.273,67.804c41.367,31.025,106.506,68.009,181.909,68.009s140.542-36.983,181.909-68.009  c44.563-33.423,71.164-66.416,72.273-67.803C512.605,258.152,512.605,253.848,510.181,250.818z M427.956,315.714  c-39.349,29.512-101.123,64.691-171.957,64.691c-70.681,0-132.335-35.038-171.611-64.431  c-32.864-24.596-56.019-49.479-65.218-59.978c9.15-10.452,32.122-35.15,64.871-59.712c39.349-29.512,101.123-64.691,171.957-64.691  c70.681,0,132.335,35.038,171.611,64.431c32.864,24.596,56.018,49.478,65.218,59.978  C483.678,266.455,460.705,291.153,427.956,315.714z"/>
<path d="M342.628,409.623c-1.422-4.354-6.102-6.731-10.459-5.308c-4.354,1.422-6.73,6.105-5.308,10.459l13.546,41.469  c1.143,3.499,4.391,5.72,7.882,5.72c0.853,0,1.722-0.133,2.578-0.412c4.354-1.422,6.73-6.105,5.308-10.459L342.628,409.623z"/>
<path d="M410.717,380.736c-2.612-3.761-7.78-4.694-11.543-2.081c-3.762,2.613-4.694,7.781-2.082,11.543l16.067,23.137  c1.611,2.32,4.193,3.564,6.82,3.564c1.632,0,3.281-0.481,4.723-1.483c3.762-2.612,4.694-7.781,2.082-11.543L410.717,380.736z"/>
<path d="M255.999,415.792c-4.58,0-8.294,3.713-8.294,8.294v53.08c0,4.58,3.713,8.294,8.294,8.294c4.58,0,8.294-3.713,8.294-8.294  v-53.08C264.293,419.506,260.58,415.792,255.999,415.792z"/>
<path d="M472.158,335.845c-3.133-3.342-8.382-3.511-11.723-0.378c-3.342,3.133-3.511,8.381-0.378,11.723l11.058,11.796  c1.633,1.741,3.839,2.621,6.052,2.621c2.033,0,4.071-0.743,5.671-2.243c3.342-3.133,3.511-8.381,0.378-11.724L472.158,335.845z"/>
<path d="M179.829,404.315c-4.355-1.422-9.037,0.954-10.459,5.308l-13.546,41.469c-1.422,4.355,0.954,9.037,5.308,10.459  c0.856,0.28,1.724,0.412,2.578,0.412c3.491,0,6.739-2.222,7.882-5.72l13.546-41.469C186.561,410.42,184.183,405.737,179.829,404.315  z"/>
<path d="M112.825,378.655c-3.762-2.613-8.931-1.681-11.543,2.081l-16.067,23.137c-2.612,3.762-1.681,8.931,2.082,11.543  c1.442,1.002,3.091,1.483,4.723,1.483c2.626,0,5.208-1.244,6.82-3.564l16.067-23.137  C117.519,386.435,116.587,381.267,112.825,378.655z"/>
<path d="M39.84,335.845l-11.058,11.796c-3.133,3.342-2.964,8.591,0.378,11.724c1.6,1.499,3.638,2.243,5.671,2.243  c2.212,0,4.42-0.88,6.052-2.621l11.058-11.796c3.133-3.342,2.964-8.591-0.378-11.723C48.222,332.333,42.973,332.503,39.84,335.845z"/>
<g>
</g>
<g>
</g>
<g>
</g>
<g>
</g>
<g>
</g>
<g>
</g>
<g>
</g>
<g>
</g>
<g>
</g>
<g>
</g>
<g>
</g>
<g>
</g>
<g>
</g>
<g>
</g>
<g>
</g>
</svg>
