<?xml version="1.0" encoding="utf-8"?>
<!-- Generator: Adobe Illustrator 22.0.0, SVG Export Plug-In . SVG Version: 6.00 Build 0)  -->
<svg version="1.1" xmlns="http://www.w3.org/2000/svg" xmlns:xlink="http://www.w3.org/1999/xlink" x="0px" y="0px"
	 viewBox="0 0 256 256" style="enable-background:new 0 0 256 256;" xml:space="preserve">
<style type="text/css">
	.st0{display:none;}
	.st1{display:inline;}
	.st2{fill:none;stroke:#6B1D1D;stroke-width:0.5;stroke-miterlimit:10;}
	.st3{fill:#3A312A;}
	.st4{fill:#87796F;}
	.st5{fill:#D5DE58;}
	.st6{fill:#695B51;}
	.st7{fill:#FCE8CB;}
	.st8{fill:#F16C7A;}
	.st9{fill:#8AC6DD;}
	.st10{fill:#DECAAD;}
	.st11{fill:#D6DF58;}
	.st12{fill-rule:evenodd;clip-rule:evenodd;fill:#FCE8CB;}
	.st13{fill:#F5978A;}
	.st14{fill:#D7E057;}
	.st15{fill-rule:evenodd;clip-rule:evenodd;fill:#87796F;}
	.st16{fill:#6CA8BF;}
	.st17{fill:#B9C239;}
	.st18{fill:#D34E5C;}
	.st19{fill:#FAE6CA;}
	.st20{fill:#F8E4C8;}
	.st21{fill:#8AC5DC;}
	.st22{fill:#EF6D7A;}
	.st23{fill:#EB6E7A;}
	.st24{fill:#89C4DB;}
	.st25{fill-rule:evenodd;clip-rule:evenodd;fill:#F16C7A;}
	.st26{fill:#F7E3C7;}
	.st27{fill:#F6E2C6;}
	.st28{fill:#ED6E7A;}
	.st29{fill:#8AC3DA;}
	.st30{fill:#D5DC57;}
	.st31{fill-rule:evenodd;clip-rule:evenodd;fill:#D7E057;}
	.st32{fill-rule:evenodd;clip-rule:evenodd;fill:#F8E4C8;}
	.st33{fill:#D4DB56;}
	.st34{fill:#F59689;}
	.st35{fill:#DDC9AC;}
	.st36{fill:#D24E5C;}
	.st37{fill:#6A5C52;}
	.st38{fill:#6CA6BE;}
	.st39{fill:#B8C136;}
	.st40{fill-rule:evenodd;clip-rule:evenodd;fill:#FAE6CA;}
</style>
<g id="Layer_2" class="st0">
	<g class="st1">
		<g>
			<line class="st2" x1="0" y1="4.829" x2="256" y2="4.829"/>
			<line class="st2" x1="0" y1="16.56" x2="256" y2="16.56"/>
			<line class="st2" x1="0" y1="28.29" x2="256" y2="28.29"/>
			<line class="st2" x1="0" y1="40.021" x2="256" y2="40.021"/>
			<line class="st2" x1="0" y1="51.751" x2="256" y2="51.751"/>
			<line class="st2" x1="0" y1="63.482" x2="256" y2="63.482"/>
			<line class="st2" x1="0" y1="75.213" x2="256" y2="75.213"/>
			<line class="st2" x1="0" y1="86.943" x2="256" y2="86.943"/>
			<line class="st2" x1="0" y1="98.674" x2="256" y2="98.674"/>
			<line class="st2" x1="0" y1="110.404" x2="256" y2="110.404"/>
			<line class="st2" x1="0" y1="122.135" x2="256" y2="122.135"/>
			<line class="st2" x1="0" y1="133.865" x2="256" y2="133.865"/>
			<line class="st2" x1="0" y1="145.596" x2="256" y2="145.596"/>
			<line class="st2" x1="0" y1="157.326" x2="256" y2="157.326"/>
			<line class="st2" x1="0" y1="169.057" x2="256" y2="169.057"/>
			<line class="st2" x1="0" y1="180.788" x2="256" y2="180.788"/>
			<line class="st2" x1="0" y1="192.518" x2="256" y2="192.518"/>
			<line class="st2" x1="0" y1="204.249" x2="256" y2="204.249"/>
			<line class="st2" x1="0" y1="215.979" x2="256" y2="215.979"/>
			<line class="st2" x1="0" y1="227.71" x2="256" y2="227.71"/>
			<line class="st2" x1="0" y1="239.44" x2="256" y2="239.44"/>
			<line class="st2" x1="0" y1="251.171" x2="256" y2="251.171"/>
		</g>
		<g>
			<line class="st2" x1="251.171" y1="0" x2="251.171" y2="256"/>
			<line class="st2" x1="239.44" y1="0" x2="239.44" y2="256"/>
			<line class="st2" x1="227.71" y1="0" x2="227.71" y2="256"/>
			<line class="st2" x1="215.979" y1="0" x2="215.979" y2="256"/>
			<line class="st2" x1="204.249" y1="0" x2="204.249" y2="256"/>
			<line class="st2" x1="192.518" y1="0" x2="192.518" y2="256"/>
			<line class="st2" x1="180.787" y1="0" x2="180.787" y2="256"/>
			<line class="st2" x1="169.057" y1="0" x2="169.057" y2="256"/>
			<line class="st2" x1="157.326" y1="0" x2="157.326" y2="256"/>
			<line class="st2" x1="145.596" y1="0" x2="145.596" y2="256"/>
			<line class="st2" x1="133.865" y1="0" x2="133.865" y2="256"/>
			<line class="st2" x1="122.135" y1="0" x2="122.135" y2="256"/>
			<line class="st2" x1="110.404" y1="0" x2="110.404" y2="256"/>
			<line class="st2" x1="98.674" y1="0" x2="98.674" y2="256"/>
			<line class="st2" x1="86.943" y1="0" x2="86.943" y2="256"/>
			<line class="st2" x1="75.212" y1="0" x2="75.212" y2="256"/>
			<line class="st2" x1="63.482" y1="0" x2="63.482" y2="256"/>
			<line class="st2" x1="51.751" y1="0" x2="51.751" y2="256"/>
			<line class="st2" x1="40.021" y1="0" x2="40.021" y2="256"/>
			<line class="st2" x1="28.29" y1="0" x2="28.29" y2="256"/>
			<line class="st2" x1="16.56" y1="0" x2="16.56" y2="256"/>
			<line class="st2" x1="4.829" y1="0" x2="4.829" y2="256"/>
		</g>
	</g>
</g>
<g id="Layer_1">
	<g>
		<path class="st4" d="M222.394,180.635H33.605c-9.447,0-17.105-7.658-17.105-17.105V33.241c0-9.447,7.658-17.106,17.105-17.106
			h188.789c9.447,0,17.106,7.658,17.106,17.106V163.53C239.5,172.977,231.842,180.635,222.394,180.635z"/>
		<path class="st3" d="M222.394,182.135H33.605C23.346,182.135,15,173.789,15,163.53V33.241c0-10.259,8.346-18.605,18.605-18.605
			h188.789c10.259,0,18.606,8.346,18.606,18.605V163.53C241,173.789,232.654,182.135,222.394,182.135z M33.605,17.635
			C25,17.635,18,24.636,18,33.241V163.53c0,8.605,7,15.605,15.605,15.605h188.789c8.605,0,15.606-7.001,15.606-15.605V33.241
			c0-8.605-7.001-15.605-15.606-15.605H33.605z"/>
		<path class="st11" d="M226.89,40.56v115.66c0,6.58-5.34,11.92-11.92,11.92H41.03c-6.58,0-11.92-5.34-11.92-11.92V40.56
			c0-6.59,5.34-11.92,11.92-11.92h173.94C221.55,28.64,226.89,33.97,226.89,40.56z"/>
		<path class="st3" d="M214.97,169.64H41.03c-7.4,0-13.42-6.02-13.42-13.42V40.56c0-7.4,6.02-13.42,13.42-13.42h173.94
			c7.4,0,13.42,6.02,13.42,13.42v115.66C228.39,163.62,222.37,169.64,214.97,169.64z M41.03,30.14c-5.746,0-10.42,4.674-10.42,10.42
			v115.66c0,5.746,4.674,10.42,10.42,10.42h173.94c5.746,0,10.42-4.674,10.42-10.42V40.56c0-5.746-4.674-10.42-10.42-10.42H41.03z"
			/>
		<rect x="113.687" y="180.635" class="st4" width="28.625" height="35.593"/>
		<path class="st3" d="M142.312,217.729h-28.625c-0.829,0-1.5-0.671-1.5-1.5v-35.593c0-0.829,0.671-1.5,1.5-1.5h28.625
			c0.829,0,1.5,0.671,1.5,1.5v35.593C143.812,217.057,143.141,217.729,142.312,217.729z M115.187,214.729h25.625v-32.593h-25.625
			V214.729z"/>
		<path class="st4" d="M135.451,239.635h36.252c0-12.927-10.48-23.407-23.407-23.407h-40.593c-12.927,0-23.407,10.479-23.407,23.407
			h37.584H135.451z"/>
		<path class="st3" d="M171.703,241.135h-36.251c-0.829,0-1.5-0.671-1.5-1.5c0-0.829,0.671-1.5,1.5-1.5h34.701
			c-0.773-11.382-10.281-20.407-21.856-20.407h-40.593c-11.575,0-21.082,9.024-21.856,20.407h36.034c0.829,0,1.5,0.671,1.5,1.5
			c0,0.829-0.671,1.5-1.5,1.5H84.297c-0.829,0-1.5-0.671-1.5-1.5c0-13.733,11.173-24.907,24.907-24.907h40.593
			c13.733,0,24.907,11.173,24.907,24.907C173.203,240.464,172.532,241.135,171.703,241.135z"/>
		<path class="st39" d="M214.97,30.135h-15c5.74,0,10.42,4.67,10.42,10.42v115.66c0,5.75-4.68,10.42-10.42,10.42h15
			c5.74,0,10.42-4.67,10.42-10.42V40.555C225.39,34.805,220.71,30.135,214.97,30.135z"/>
		<path class="st11" d="M47.671,203.469c0,0,3.408,12.659,13.222,13.247c0,0-13.1,4.525-13.321,14.202
			c0,0-2.579-13.572-12.925-14.059C34.647,216.859,46.697,215.033,47.671,203.469z"/>
		<path class="st3" d="M47.57,232.417c-0.712,0-1.335-0.506-1.472-1.217c-0.024-0.124-2.495-12.417-11.523-12.842
			c-0.77-0.037-1.387-0.651-1.427-1.421c-0.04-0.771,0.511-1.445,1.273-1.561c0.441-0.069,10.895-1.817,11.755-12.033
			c0.061-0.725,0.634-1.301,1.359-1.367c0.735-0.059,1.393,0.399,1.583,1.101c0.032,0.116,3.259,11.627,11.863,12.141
			c0.714,0.043,1.298,0.584,1.396,1.292c0.098,0.708-0.319,1.388-0.994,1.623c-0.121,0.042-12.118,4.311-12.313,12.819
			c-0.018,0.767-0.61,1.396-1.375,1.459C47.655,232.416,47.612,232.417,47.57,232.417z M39.83,216.688
			c3.878,1.969,6.23,5.746,7.587,8.877c2.026-4.021,5.942-6.787,8.949-8.427c-4.135-1.842-6.783-5.651-8.334-8.723
			C46.239,212.774,42.76,215.283,39.83,216.688z"/>
		<path class="st11" d="M25.972,220.45c0,0,2.411,8.954,9.352,9.369c0,0-9.266,3.201-9.422,10.046c0,0-1.824-9.6-9.142-9.944
			C16.76,229.921,25.284,228.629,25.972,220.45z"/>
		<path class="st3" d="M25.9,241.365c-0.713,0-1.337-0.507-1.472-1.22c-0.016-0.082-1.704-8.441-7.739-8.726
			c-0.77-0.037-1.387-0.651-1.427-1.421c-0.04-0.77,0.511-1.445,1.274-1.56c0.296-0.047,7.364-1.243,7.942-8.114
			c0.061-0.726,0.635-1.303,1.36-1.368c0.731-0.062,1.392,0.399,1.582,1.102l0,0c0.021,0.079,2.228,7.92,7.994,8.265
			c0.714,0.043,1.299,0.584,1.396,1.293c0.098,0.709-0.32,1.388-0.996,1.622c-0.081,0.028-8.282,2.952-8.413,8.662
			c-0.018,0.768-0.611,1.398-1.376,1.461C25.983,241.363,25.942,241.365,25.9,241.365z M21.382,229.837
			c2.107,1.332,3.524,3.394,4.447,5.28c1.376-2.232,3.515-3.872,5.365-4.973c-2.287-1.27-3.884-3.35-4.941-5.224
			C25.079,227.208,23.238,228.796,21.382,229.837z"/>
		<path class="st11" d="M25.972,193.792c0,0,2.411,8.954,9.352,9.37c0,0-9.266,3.201-9.422,10.045c0,0-1.824-9.6-9.142-9.944
			C16.76,203.263,25.284,201.972,25.972,193.792z"/>
		<path class="st3" d="M25.901,214.708c-0.714,0-1.337-0.507-1.473-1.22c-0.016-0.082-1.704-8.442-7.739-8.726
			c-0.77-0.037-1.387-0.651-1.427-1.421c-0.04-0.771,0.511-1.445,1.274-1.561c0.296-0.047,7.364-1.243,7.942-8.113
			c0.061-0.726,0.635-1.303,1.36-1.368c0.731-0.063,1.392,0.4,1.582,1.102l0,0c0.021,0.079,2.228,7.919,7.994,8.264
			c0.714,0.043,1.299,0.584,1.396,1.293c0.098,0.709-0.319,1.388-0.996,1.622c-0.081,0.028-8.282,2.953-8.413,8.662
			c-0.018,0.768-0.611,1.397-1.376,1.461C25.983,214.706,25.942,214.708,25.901,214.708z M21.382,203.18
			c2.107,1.332,3.523,3.395,4.447,5.28c1.376-2.232,3.515-3.872,5.365-4.973c-2.287-1.269-3.884-3.35-4.941-5.223
			C25.079,200.55,23.238,202.139,21.382,203.18z"/>
		<path class="st8" d="M140.692,62.301c-2.045,3.926-3.193,8.287-3.193,12.887c0,7.817,3.299,14.953,8.73,20.406l-5.57,14.035
			c-0.534,1.346,0.745,2.704,2.12,2.251l20.655-6.799c2.968,0.714,6.089,1.102,9.315,1.102c19.468,0,35.251-13.877,35.251-30.995
			c0-17.118-15.782-30.995-35.251-30.995c-9.499,0-18.114,3.31-24.453,8.682L140.692,62.301z"/>
		<path class="st3" d="M142.232,113.47c-0.865,0-1.7-0.353-2.32-1.012c-0.863-0.916-1.111-2.212-0.647-3.382l5.213-13.135
			c-5.475-5.826-8.478-13.158-8.478-20.752c0-4.727,1.131-9.296,3.362-13.581c0.383-0.734,1.289-1.021,2.023-0.638
			c0.735,0.383,1.02,1.289,0.638,2.023c-2.006,3.852-3.023,7.955-3.023,12.195c0,7.108,2.945,13.978,8.292,19.347
			c0.421,0.423,0.552,1.057,0.331,1.612l-5.57,14.035c-0.014,0.037-0.048,0.122,0.042,0.218c0.09,0.096,0.177,0.067,0.214,0.055
			l20.655-6.799c0.266-0.086,0.55-0.099,0.82-0.034c2.926,0.704,5.943,1.06,8.965,1.06c18.61,0,33.751-13.231,33.751-29.495
			c0-16.264-15.141-29.495-33.751-29.495c-8.808,0-17.148,2.957-23.483,8.326c-0.632,0.536-1.579,0.457-2.114-0.175
			c-0.536-0.632-0.457-1.579,0.175-2.114c6.876-5.828,15.905-9.037,25.423-9.037c20.264,0,36.751,14.577,36.751,32.495
			c0,17.917-16.486,32.495-36.751,32.495c-3.114,0-6.223-0.352-9.247-1.045l-20.254,6.667
			C142.912,113.416,142.57,113.47,142.232,113.47z"/>
		<path class="st3" d="M191.95,62.547h-37.287c-0.829,0-1.5-0.671-1.5-1.5c0-0.829,0.671-1.5,1.5-1.5h37.287
			c0.829,0,1.5,0.671,1.5,1.5C193.45,61.876,192.779,62.547,191.95,62.547z"/>
		<path class="st3" d="M195.823,74.549h-46.431c-0.829,0-1.5-0.671-1.5-1.5c0-0.829,0.671-1.5,1.5-1.5h46.431
			c0.829,0,1.5,0.671,1.5,1.5C197.323,73.877,196.652,74.549,195.823,74.549z"/>
		<path class="st3" d="M191.95,86.55h-37.287c-0.829,0-1.5-0.671-1.5-1.5c0-0.829,0.671-1.5,1.5-1.5h37.287
			c0.829,0,1.5,0.671,1.5,1.5C193.45,85.878,192.779,86.55,191.95,86.55z"/>
		<path class="st19" d="M131.41,159.68v8.46H48.9v-8.46c0-5.46,2.35-10.37,6.1-13.78c0.88-0.8,1.84-1.52,2.86-2.14
			c0.51-0.32,1.04-0.6,1.59-0.86c2.44-1.17,5.18-1.83,8.07-1.83h12.3v-8.04h0.21c3.39,2.39,6.85,3.8,10.13,3.8
			c3.41,0,6.93-1.4,10.33-3.75v7.99h12.3c2.9,0,5.64,0.66,8.08,1.83c0.54,0.26,1.07,0.54,1.58,0.86c1.02,0.62,1.98,1.34,2.86,2.14
			C129.06,149.31,131.41,154.22,131.41,159.68z"/>
		<path class="st3" d="M131.41,169.64H48.9c-0.829,0-1.5-0.671-1.5-1.5v-8.46c0-5.654,2.402-11.081,6.591-14.89
			c0.956-0.869,1.996-1.646,3.09-2.312c0.504-0.316,1.075-0.625,1.729-0.934c2.729-1.309,5.663-1.974,8.711-1.974h10.8v-6.54
			c0-0.829,0.671-1.5,1.5-1.5h0.21c0.31,0,0.611,0.096,0.864,0.274c3.319,2.34,6.437,3.526,9.266,3.526
			c2.944,0,6.132-1.172,9.477-3.484c0.459-0.317,1.056-0.354,1.55-0.095c0.494,0.259,0.803,0.771,0.803,1.329v6.49h10.8
			c3.055,0,5.992,0.666,8.729,1.978c0.659,0.318,1.224,0.625,1.729,0.941c1.077,0.655,2.116,1.433,3.072,2.301
			c4.189,3.809,6.591,9.236,6.591,14.89v8.46C132.91,168.969,132.239,169.64,131.41,169.64z M50.4,166.64h79.51v-6.96
			c0-4.811-2.044-9.429-5.609-12.67c-0.814-0.74-1.699-1.402-2.63-1.968c-0.433-0.271-0.889-0.519-1.452-0.791
			c-2.326-1.115-4.826-1.681-7.429-1.681h-12.3c-0.829,0-1.5-0.671-1.5-1.5v-5.286c-3.034,1.691-5.994,2.546-8.83,2.546
			c-2.808,0-5.773-0.902-8.84-2.687v5.427c0,0.829-0.671,1.5-1.5,1.5h-12.3c-2.596,0-5.093,0.566-7.421,1.683
			c-0.552,0.261-1.022,0.515-1.442,0.778c-0.949,0.577-1.833,1.239-2.648,1.979c-3.564,3.242-5.609,7.86-5.609,12.67V166.64z"/>
		<path class="st21" d="M131.41,159.68v8.46H48.9v-8.46c0-5.46,2.35-10.37,6.1-13.78c0.88-0.8,1.84-1.52,2.86-2.14
			c0.51-0.32,1.04-0.6,1.59-0.86c2.44-1.18,5.18-1.84,8.07-1.84h3.69l-0.01,0.01l-0.07,0.05l12.8,16.97l6.6-4.98l6.6,4.98
			l12.8-16.97l-0.07-0.05l-0.01-0.01h2.94c2.9,0,5.64,0.66,8.08,1.84c0.54,0.26,1.07,0.54,1.58,0.86c1.02,0.62,1.98,1.34,2.86,2.14
			C129.06,149.31,131.41,154.22,131.41,159.68z"/>
		<path class="st3" d="M131.41,169.64H48.9c-0.829,0-1.5-0.671-1.5-1.5v-8.46c0-5.654,2.402-11.081,6.591-14.89
			c0.956-0.869,1.996-1.646,3.09-2.312c0.504-0.316,1.075-0.625,1.729-0.934c2.718-1.314,5.653-1.984,8.711-1.984h3.69
			c0.607,0,1.154,0.365,1.386,0.926c0.022,0.053,0.041,0.107,0.056,0.162l11.572,15.341l5.402-4.076
			c0.534-0.403,1.272-0.403,1.807,0l5.403,4.076l11.583-15.355c0.015-0.048,0.031-0.096,0.051-0.143
			c0.232-0.561,0.774-0.931,1.381-0.931h2.94c3.064,0,6.003,0.669,8.733,1.989c0.655,0.316,1.219,0.624,1.724,0.939
			c1.077,0.655,2.116,1.433,3.072,2.301c4.189,3.809,6.591,9.236,6.591,14.89v8.46C132.91,168.969,132.239,169.64,131.41,169.64z
			 M50.4,166.64h79.51v-6.96c0-4.811-2.044-9.429-5.609-12.67c-0.814-0.74-1.699-1.402-2.63-1.968
			c-0.433-0.271-0.889-0.519-1.452-0.791c-2.321-1.122-4.82-1.691-7.429-1.691h-2.067l-12.396,16.433
			c-0.24,0.317-0.596,0.527-0.99,0.582c-0.396,0.055-0.794-0.048-1.111-0.288l-5.697-4.298l-5.696,4.298
			c-0.318,0.24-0.718,0.343-1.111,0.288c-0.394-0.055-0.75-0.265-0.99-0.582L70.337,142.56H67.52c-2.602,0-5.097,0.569-7.417,1.69
			c-0.557,0.263-1.026,0.517-1.446,0.78c-0.949,0.577-1.833,1.239-2.648,1.979c-3.564,3.242-5.609,7.86-5.609,12.67V166.64z"/>
		<path class="st40" d="M65.513,94.918c0,4.046-3.28,7.326-7.326,7.326c-4.046,0-7.326-3.28-7.326-7.326
			c0-4.046,3.28-7.326,7.326-7.326C62.233,87.592,65.513,90.872,65.513,94.918z"/>
		<path class="st3" d="M58.187,103.743c-4.867,0-8.826-3.959-8.826-8.825c0-4.867,3.959-8.826,8.826-8.826
			c4.867,0,8.826,3.959,8.826,8.826C67.013,99.784,63.054,103.743,58.187,103.743z M58.187,89.092c-3.212,0-5.826,2.613-5.826,5.826
			c0,3.212,2.613,5.825,5.826,5.825c3.212,0,5.826-2.613,5.826-5.825C64.013,91.706,61.399,89.092,58.187,89.092z"/>
		<path class="st40" d="M129.452,94.918c0,4.046-3.28,7.326-7.326,7.326c-4.046,0-7.326-3.28-7.326-7.326
			c0-4.046,3.28-7.326,7.326-7.326C126.172,87.592,129.452,90.872,129.452,94.918z"/>
		<path class="st3" d="M122.126,103.743c-4.867,0-8.826-3.959-8.826-8.825c0-4.867,3.959-8.826,8.826-8.826
			c4.867,0,8.826,3.959,8.826,8.826C130.952,99.784,126.993,103.743,122.126,103.743z M122.126,89.092
			c-3.212,0-5.826,2.613-5.826,5.826c0,3.212,2.613,5.825,5.826,5.825c3.212,0,5.826-2.613,5.826-5.825
			C127.952,91.706,125.339,89.092,122.126,89.092z"/>
		<path class="st19" d="M122.632,91.362c0,17.935-17.273,45.465-32.475,45.465c-14.51,0-32.475-27.53-32.475-45.465
			s14.54-32.475,32.475-32.475C108.092,58.887,122.632,73.426,122.632,91.362z"/>
		<path class="st3" d="M90.157,138.327c-7.248,0-15.6-6.07-22.913-16.654c-6.823-9.874-11.062-21.489-11.062-30.311
			c0-18.734,15.241-33.975,33.975-33.975c18.734,0,33.975,15.241,33.975,33.975C124.132,110.333,106.235,138.327,90.157,138.327z
			 M90.157,60.387c-17.08,0-30.975,13.896-30.975,30.975c0,16.706,17.304,43.965,30.975,43.965c6.41,0,14.147-5.739,20.699-15.352
			c6.339-9.301,10.276-20.265,10.276-28.613C121.132,74.282,107.236,60.387,90.157,60.387z"/>
		<circle class="st3" cx="78.691" cy="90.995" r="3.17"/>
		<path class="st3" d="M104.792,90.995c0,1.751-1.419,3.17-3.17,3.17c-1.751,0-3.17-1.419-3.17-3.17c0-1.751,1.419-3.17,3.17-3.17
			C103.373,87.825,104.792,89.245,104.792,90.995z"/>
		<path class="st34" d="M77.816,100.419c0,2.254-2.445,4.082-5.46,4.082c-3.016,0-5.46-1.828-5.46-4.082
			c0-2.254,2.445-4.082,5.46-4.082C75.372,96.337,77.816,98.164,77.816,100.419z"/>
		<path class="st34" d="M77.816,100.419c0,2.254-2.445,4.082-5.46,4.082c-3.016,0-5.46-1.828-5.46-4.082
			c0-2.254,2.445-4.082,5.46-4.082C75.372,96.337,77.816,98.164,77.816,100.419z"/>
		<path class="st34" d="M112.816,100.419c0,2.254-2.445,4.082-5.46,4.082c-3.016,0-5.46-1.828-5.46-4.082
			c0-2.254,2.445-4.082,5.46-4.082C110.372,96.337,112.816,98.164,112.816,100.419z"/>
		<path class="st4" d="M90.531,51.719c-18.564,0-33.613,14.388-33.613,32.137c0,1.878,0.34,3.278,0.971,5.027
			c0.298,0.824,5.111-1.808,5.521-2.097c2.049-1.443,3.724-3.399,4.976-5.561c0.518-0.899,0.949-1.814,1.297-2.729
			c1.108-2.919,4.118-11.042,7.175-10.405c4.099,0.854,8.745,1.337,13.673,1.337c4.929,0,9.574-0.483,13.673-1.337
			c3.056-0.637,6.067,7.486,7.175,10.405c0.347,0.915,0.779,1.83,1.297,2.729c2.068,3.577,5.561,6.982,9.809,7.601
			c0.011-0.205,0.27-0.275,0.463-0.345c1.391-0.505,1.196-3.511,1.196-4.626C124.144,66.107,109.095,51.719,90.531,51.719z"/>
		<path class="st3" d="M58.151,90.523c-0.206,0-0.393-0.023-0.557-0.076c-0.526-0.166-0.933-0.551-1.115-1.057
			c-0.636-1.761-1.061-3.377-1.061-5.535c0-18.547,15.751-33.637,35.113-33.637c19.361,0,35.113,15.089,35.113,33.636l0.004,0.353
			c0.024,1.666,0.069,4.738-2.058,5.631c-0.047,0.052-0.099,0.101-0.154,0.146c-0.326,0.268-0.751,0.385-1.167,0.325
			c-4.153-0.605-8.224-3.722-10.892-8.334c-0.549-0.955-1.02-1.946-1.4-2.948l-0.07-0.184c-3.553-9.374-5.21-9.321-5.396-9.285
			c-4.358,0.909-9.062,1.369-13.98,1.369c-4.919,0-9.622-0.46-13.979-1.369c-0.178-0.035-1.843-0.09-5.396,9.284l-0.07,0.185
			c-0.38,1.002-0.851,1.993-1.398,2.945c-1.426,2.462-3.297,4.549-5.413,6.039C64.234,88.041,60.257,90.523,58.151,90.523z
			 M90.531,53.219c-17.707,0-32.113,13.744-32.113,30.637c0,1.33,0.19,2.366,0.531,3.474c1.175-0.446,3.125-1.46,3.612-1.78
			c1.749-1.232,3.32-2.99,4.528-5.076c0.466-0.811,0.868-1.657,1.192-2.51l0.07-0.184c2.371-6.255,5.083-11.938,8.814-11.158
			c4.156,0.866,8.653,1.306,13.367,1.306c4.713,0,9.21-0.439,13.368-1.306c3.734-0.78,6.443,4.903,8.814,11.159l0.069,0.183
			c0.324,0.853,0.726,1.699,1.194,2.513c2.066,3.574,5.052,6.05,8.089,6.746c0.087-0.043,0.182-0.083,0.283-0.12
			c0.16-0.241,0.328-0.94,0.3-2.85l-0.004-0.397C122.644,66.962,108.239,53.219,90.531,53.219z"/>
		
			<rect x="76.697" y="136.479" transform="matrix(0.7986 -0.6019 0.6019 0.7986 -72.253 78.2849)" class="st4" width="8.302" height="21.251"/>
		<path class="st3" d="M83.929,159.588c-0.069,0-0.139-0.005-0.209-0.015c-0.394-0.055-0.75-0.265-0.989-0.583L69.94,142.02
			c-0.498-0.662-0.367-1.602,0.295-2.101l6.63-4.997c0.317-0.24,0.718-0.343,1.111-0.288c0.394,0.055,0.75,0.265,0.989,0.583
			l12.791,16.972c0.499,0.662,0.367,1.602-0.295,2.101l-6.63,4.997C84.57,159.483,84.252,159.588,83.929,159.588z M73.239,141.412
			l10.985,14.576l4.234-3.191l-10.985-14.576L73.239,141.412z"/>
		
			<rect x="96.064" y="136.479" transform="matrix(-0.7986 -0.6019 0.6019 -0.7986 91.7113 324.8972)" class="st4" width="8.302" height="21.251"/>
		<path class="st3" d="M97.134,159.588c-0.324,0-0.641-0.105-0.903-0.302l-6.63-4.997c-0.662-0.499-0.794-1.439-0.295-2.101
			l12.791-16.972c0.239-0.318,0.595-0.527,0.989-0.583c0.392-0.056,0.793,0.048,1.111,0.288l6.63,4.997
			c0.662,0.499,0.794,1.439,0.295,2.101l-12.791,16.972c-0.239,0.318-0.595,0.527-0.989,0.583
			C97.273,159.584,97.204,159.588,97.134,159.588z M92.605,152.797l4.234,3.191l10.985-14.576l-4.234-3.191L92.605,152.797z"/>
		<path class="st4" d="M62.685,58.026c5.512,6.941,12.107,14.342,20.071,16.606c12.828,3.647,35.532-0.903,35.532-19.366
			c0-11.807-9.896-26.076-28.364-15.211c-22.892,13.468-36.18-12.421-36.18-0.615c0,3.732,1.503,7.454,3.477,10.84L62.685,58.026z"
			/>
		<path class="st3" d="M91.729,77.286c-3.398,0-6.632-0.429-9.383-1.211c-8.221-2.337-14.872-9.607-20.835-17.116
			c-0.018-0.022-0.035-0.045-0.051-0.068l-5.463-7.745c-0.025-0.036-0.048-0.072-0.07-0.109c-2.477-4.25-3.681-8.043-3.681-11.596
			c0-1.584,0.188-3.508,1.649-4.336c1.726-0.978,3.696,0.204,6.68,1.993c5.819,3.49,15.56,9.33,28.59,1.665
			c9.972-5.865,16.902-4.33,20.959-2.01c6.677,3.819,9.666,12.05,9.666,18.514c0,6.558-2.742,12.096-7.929,16.014
			C106.272,75.5,98.66,77.286,91.729,77.286z M63.886,57.127c5.644,7.103,11.887,13.96,19.28,16.062
			c7.464,2.122,19.421,1.335,26.886-4.303c4.47-3.376,6.737-7.959,6.737-13.62c0-5.598-2.521-12.688-8.155-15.909
			c-4.832-2.763-11.038-2.074-17.949,1.991c-14.567,8.569-25.683,1.904-31.654-1.678c-1.315-0.789-2.922-1.752-3.615-1.892
			c-0.07,0.215-0.171,0.692-0.171,1.662c0,2.992,1.06,6.273,3.241,10.029L63.886,57.127z"/>
		<path class="st3" d="M90.156,119.204c-4.818,0-8.293-2.167-10.328-6.44c-0.356-0.748-0.038-1.643,0.71-1.999
			c0.748-0.355,1.643-0.038,1.999,0.709c1.537,3.228,3.958,4.73,7.619,4.73c4.621,0,6.971-3.017,7.568-4.611
			c0.29-0.776,1.154-1.169,1.931-0.879c0.776,0.29,1.169,1.155,0.879,1.931C99.351,115.803,95.598,119.204,90.156,119.204z"/>
	</g>
</g>
</svg>
