<?xml version="1.0" encoding="utf-8"?>
<!-- Generator: Adobe Illustrator 23.0.6, SVG Export Plug-In . SVG Version: 6.00 Build 0)  -->
<svg version="1.1" id="Layer_1" xmlns="http://www.w3.org/2000/svg" xmlns:xlink="http://www.w3.org/1999/xlink" x="0px" y="0px"
	 viewBox="0 0 128 128" style="enable-background:new 0 0 128 128;" xml:space="preserve">
<style type="text/css">
	.st0{fill:#B8D8D3;}
	.st1{fill:#F7D6BF;}
	.st2{fill:#172956;}
</style>
<title>PROGRESS</title>
<g>
	<g>
		<rect x="31" y="85" class="st0" width="11.7" height="20.3"/>
		<rect x="49.6" y="74.5" class="st1" width="11.7" height="30.8"/>
		<rect x="68.2" y="64.7" class="st0" width="11.7" height="40.7"/>
		<rect x="86.8" y="55.4" class="st1" width="11.7" height="49.9"/>
	</g>
</g>
<path class="st2" d="M46.5,60c-0.5-0.8-0.3-1.9,0.6-2.4l0,0L70,43.5l-3.5-0.9c-0.9-0.2-1.5-1.2-1.3-2.1c0.2-0.9,1.2-1.5,2.1-1.3
	l7.5,1.9l0,0c1,0.3,1.5,1.2,1.3,2.1l0,0l-1.9,7.6c-0.2,0.9-1.2,1.5-2.1,1.3s-1.5-1.2-1.3-2.1l0.8-3.4l-22.7,14
	C48.1,61.1,47,60.9,46.5,60L46.5,60L46.5,60z M107.1,105.3c0,1-0.8,1.7-1.8,1.8H22.7c-1,0-1.7-0.8-1.8-1.8v-74c0-1,0.8-1.8,1.8-1.8
	s1.8,0.8,1.8,1.8v72.3h4.8V85c0-1,0.8-1.8,1.8-1.8h11.7c1,0,1.8,0.8,1.8,1.8v18.6H48V74.5c0-1,0.8-1.8,1.8-1.8h11.7
	c1,0,1.8,0.8,1.8,1.8v29.1h3.4V64.7c0-1,0.8-1.8,1.8-1.8h11.7c1,0,1.8,0.8,1.8,1.8v38.9h3V55.4c0-1,0.8-1.8,1.8-1.8h11.7
	c1,0,1.7,0.8,1.8,1.8v17.7c0,1-0.8,1.8-1.8,1.8s-1.8-0.8-1.8-1.8v-16h-8.2v46.4h8.2V90c0-1,0.8-1.8,1.8-1.8s1.8,0.8,1.8,1.8l0,0
	v13.6h5.2C106.3,103.6,107.1,104.4,107.1,105.3z M40.9,103.6V86.8h-8.2v16.8C32.7,103.6,40.9,103.6,40.9,103.6z M59.5,103.6V76.3
	h-8.2v27.3C51.3,103.6,59.5,103.6,59.5,103.6z M78.1,103.6V66.4h-8.2v37.2C69.9,103.6,78.1,103.6,78.1,103.6z M98.4,78.7
	c-1,0-1.8,0.8-1.8,1.8v2.4c0,1,0.8,1.8,1.8,1.8s1.8-0.8,1.8-1.8v-2.4C100.2,79.4,99.4,78.7,98.4,78.7z"/>
</svg>
